<?xml version="1.0" encoding="UTF-8"?>
<svg width="20px" height="21px" viewBox="0 0 20 21" version="1.1" xmlns="http://www.w3.org/2000/svg" xmlns:xlink="http://www.w3.org/1999/xlink">
    <!-- Generator: Sketch 49.3 (51167) - http://www.bohemiancoding.com/sketch -->
    <title>next-arrow</title>
    <desc>Created with Sketch.</desc>
    <defs></defs>
    <g id="Desktop" stroke="none" stroke-width="1" fill="none" fill-rule="evenodd">
        <g id="Get-Started---Step-1" transform="translate(-789.000000, -670.000000)" fill="#FFFFFF">
            <g id="Button" transform="translate(540.000000, 649.000000)">
                <g id="Group" transform="translate(78.000000, 21.000000)">
                    <path d="M181,0.25 C182.380215,0.25 183.67903,0.510414063 184.896484,1.03125 C186.113938,1.55208594 187.175126,2.26496943 188.080078,3.16992188 C188.985031,4.07487432 189.697914,5.13606162 190.21875,6.35351562 C190.739586,7.57096963 191,8.86978477 191,10.25 C191,11.6302152 190.739586,12.9290304 190.21875,14.1464844 C189.697914,15.3639384 188.985031,16.4251257 188.080078,17.3300781 C187.175126,18.2350306 186.113938,18.9479141 184.896484,19.46875 C183.67903,19.9895859 182.380215,20.25 181,20.25 C179.619785,20.25 178.32097,19.9895859 177.103516,19.46875 C175.886062,18.9479141 174.824874,18.2350306 173.919922,17.3300781 C173.014969,16.4251257 172.302086,15.3639384 171.78125,14.1464844 C171.260414,12.9290304 171,11.6302152 171,10.25 C171,8.86978477 171.260414,7.57096963 171.78125,6.35351562 C172.302086,5.13606162 173.014969,4.07487432 173.919922,3.16992188 C174.824874,2.26496943 175.886062,1.55208594 177.103516,1.03125 C178.32097,0.510414063 179.619785,0.25 181,0.25 Z M181,19.0195312 C182.210944,19.0195312 183.347,18.7884138 184.408203,18.3261719 C185.469406,17.86393 186.393876,17.2356811 187.181641,16.4414062 C187.969405,15.6471314 188.594399,14.7194063 189.056641,13.6582031 C189.518883,12.5969999 189.75,11.4609436 189.75,10.25 C189.75,9.03905645 189.518883,7.9030001 189.056641,6.84179688 C188.594399,5.78059365 187.969405,4.85612373 187.181641,4.06835938 C186.393876,3.28059502 185.469406,2.65560127 184.408203,2.19335938 C183.347,1.73111748 182.210944,1.5 181,1.5 C179.789056,1.5 178.653,1.73111748 177.591797,2.19335938 C176.530594,2.65560127 175.606124,3.28059502 174.818359,4.06835938 C174.030595,4.85612373 173.405601,5.78059365 172.943359,6.84179688 C172.481117,7.9030001 172.25,9.03905645 172.25,10.25 C172.25,11.4609436 172.481117,12.5969999 172.943359,13.6582031 C173.405601,14.7194063 174.030595,15.6471314 174.818359,16.4414062 C175.606124,17.2356811 176.530594,17.86393 177.591797,18.3261719 C178.653,18.7884138 179.789056,19.0195312 181,19.0195312 Z M181.390625,6.48046875 C181.520834,6.35025977 181.670572,6.28515625 181.839844,6.28515625 C182.009115,6.28515625 182.158854,6.35025977 182.289062,6.48046875 L185.980469,10.2695312 L182.289062,14.0585938 C182.223958,14.1106773 182.152344,14.1529946 182.074219,14.1855469 C181.996093,14.2180991 181.917969,14.234375 181.839844,14.234375 C181.761718,14.234375 181.683594,14.2180991 181.605469,14.1855469 C181.527343,14.1529946 181.455729,14.1106773 181.390625,14.0585938 C181.273437,13.9283848 181.214844,13.7786467 181.214844,13.609375 C181.214844,13.4401033 181.273437,13.2903652 181.390625,13.1601562 L183.695312,10.875 L176.625,10.875 C176.442707,10.875 176.292969,10.8131517 176.175781,10.6894531 C176.058593,10.5657546 176,10.4192717 176,10.25 C176,10.0677074 176.058593,9.91796934 176.175781,9.80078125 C176.292969,9.68359316 176.442707,9.625 176.625,9.625 L183.65625,9.625 L181.390625,7.359375 C181.273437,7.24218691 181.214844,7.095704 181.214844,6.91992188 C181.214844,6.74413975 181.273437,6.59765684 181.390625,6.48046875 Z" id="next-arrow"></path>
                </g>
            </g>
        </g>
    </g>
</svg>