<?xml version="1.0" encoding="UTF-8"?>
<svg width="17px" height="19px" viewBox="0 0 17 19" version="1.1" xmlns="http://www.w3.org/2000/svg" xmlns:xlink="http://www.w3.org/1999/xlink">
    <!-- Generator: Sketch 49.3 (51167) - http://www.bohemiancoding.com/sketch -->
    <title>next-arrow2</title>
    <desc>Created with Sketch.</desc>
    <defs></defs>
    <g id="Desktop" stroke="none" stroke-width="1" fill="none" fill-rule="evenodd">
        <g id="Pricing---Custom-Mockup" transform="translate(-1174.000000, -1411.000000)" fill="#FFFFFF">
            <g id="Sticky-Bottom-Nav" transform="translate(0.000000, 1367.000000)">
                <path d="M1190.42857,53.5714286 C1190.42857,53.9732163 1190.29092,54.3117546 1190.01562,54.5870536 L1182.75,61.8526786 C1182.45982,62.1279776 1182.12128,62.265625 1181.73438,62.265625 C1181.35491,62.265625 1181.02009,62.1279776 1180.72991,61.8526786 L1179.89286,61.015625 C1179.61012,60.7328855 1179.46875,60.3943472 1179.46875,60 C1179.46875,59.6056528 1179.61012,59.2671145 1179.89286,58.984375 L1183.16295,55.7142857 L1175.3058,55.7142857 C1174.9189,55.7142857 1174.60454,55.5747782 1174.36272,55.2957589 C1174.12091,55.0167397 1174,54.6800615 1174,54.2857143 L1174,52.8571429 C1174,52.4627956 1174.12091,52.1261175 1174.36272,51.8470982 C1174.60454,51.568079 1174.9189,51.4285714 1175.3058,51.4285714 L1183.16295,51.4285714 L1179.89286,48.1473214 C1179.61012,47.8794629 1179.46875,47.5446449 1179.46875,47.1428571 C1179.46875,46.7410694 1179.61012,46.4062513 1179.89286,46.1383929 L1180.72991,45.3013393 C1181.01265,45.0185998 1181.34747,44.8772321 1181.73438,44.8772321 C1182.12872,44.8772321 1182.46726,45.0185998 1182.75,45.3013393 L1190.01562,52.5669643 C1190.29092,52.8273823 1190.42857,53.1622003 1190.42857,53.5714286 Z" id="next-arrow2"></path>
            </g>
        </g>
    </g>
</svg>