<?xml version="1.0" encoding="UTF-8"?>
<svg width="18px" height="18px" viewBox="0 0 18 18" version="1.1" xmlns="http://www.w3.org/2000/svg" xmlns:xlink="http://www.w3.org/1999/xlink">
    <!-- Generator: Sketch 49.3 (51167) - http://www.bohemiancoding.com/sketch -->
    <title>question-circle</title>
    <desc>Created with Sketch.</desc>
    <defs></defs>
    <g id="Desktop" stroke="none" stroke-width="1" fill="none" fill-rule="evenodd">
        <g id="Pricing-Overview---Incorporation" transform="translate(-1006.000000, -720.000000)" fill="#2F417C">
            <g id="Incorporation" transform="translate(335.000000, 641.000000)">
                <path d="M681.857143,93.2142857 L681.857143,91.0714286 C681.857143,90.9672614 681.823661,90.8816968 681.756696,90.8147321 C681.689732,90.7477675 681.604167,90.7142857 681.5,90.7142857 L679.357143,90.7142857 C679.252976,90.7142857 679.167411,90.7477675 679.100446,90.8147321 C679.033482,90.8816968 679,90.9672614 679,91.0714286 L679,93.2142857 C679,93.3184529 679.033482,93.4040175 679.100446,93.4709821 C679.167411,93.5379468 679.252976,93.5714286 679.357143,93.5714286 L681.5,93.5714286 C681.604167,93.5714286 681.689732,93.5379468 681.756696,93.4709821 C681.823661,93.4040175 681.857143,93.3184529 681.857143,93.2142857 Z M684.714286,85.7142857 C684.714286,85.0595205 684.507815,84.4531278 684.094866,83.8950893 C683.681918,83.3370508 683.16667,82.9055075 682.549107,82.6004464 C681.931545,82.2953854 681.29911,82.1428571 680.651786,82.1428571 C678.843741,82.1428571 677.463546,82.9352599 676.511161,84.5200893 C676.399553,84.6986616 676.429315,84.85491 676.600446,84.9888393 L678.073661,86.1049107 C678.125744,86.1495538 678.196428,86.171875 678.285714,86.171875 C678.404762,86.171875 678.497768,86.1272326 678.564732,86.0379464 C678.959079,85.5319915 679.279017,85.189733 679.524554,85.0111607 C679.777531,84.8325884 680.097468,84.7433036 680.484375,84.7433036 C680.84152,84.7433036 681.159597,84.8400288 681.438616,85.0334821 C681.717635,85.2269355 681.857143,85.4464273 681.857143,85.6919643 C681.857143,85.9747038 681.782739,86.201636 681.633929,86.3727679 C681.485118,86.5438997 681.232145,86.7113087 680.875,86.875 C680.406248,87.0833344 679.976564,87.4051318 679.585938,87.8404018 C679.195311,88.2756718 679,88.742557 679,89.2410714 L679,89.6428571 C679,89.7470243 679.033482,89.832589 679.100446,89.8995536 C679.167411,89.9665182 679.252976,90 679.357143,90 L681.5,90 C681.604167,90 681.689732,89.9665182 681.756696,89.8995536 C681.823661,89.832589 681.857143,89.7470243 681.857143,89.6428571 C681.857143,89.5014874 681.937127,89.3173374 682.097098,89.0904018 C682.257069,88.8634661 682.45982,88.6793162 682.705357,88.5379464 C682.943454,88.4040172 683.125743,88.2979915 683.252232,88.2198661 C683.378721,88.1417407 683.54985,88.0115336 683.765625,87.8292411 C683.9814,87.6469485 684.146949,87.4683789 684.262277,87.2935268 C684.377605,87.1186747 684.48177,86.8936026 684.574777,86.6183036 C684.667783,86.3430046 684.714286,86.0416683 684.714286,85.7142857 Z M689,87.8571429 C689,89.4122102 688.616819,90.8463476 687.850446,92.1595982 C687.084074,93.4728488 686.044277,94.512645 684.731027,95.2790179 C683.417776,96.0453907 681.983639,96.4285714 680.428571,96.4285714 C678.873504,96.4285714 677.439367,96.0453907 676.126116,95.2790179 C674.812865,94.512645 673.773069,93.4728488 673.006696,92.1595982 C672.240324,90.8463476 671.857143,89.4122102 671.857143,87.8571429 C671.857143,86.3020756 672.240324,84.8679381 673.006696,83.5546875 C673.773069,82.2414369 674.812865,81.2016407 676.126116,80.4352679 C677.439367,79.668895 678.873504,79.2857143 680.428571,79.2857143 C681.983639,79.2857143 683.417776,79.668895 684.731027,80.4352679 C686.044277,81.2016407 687.084074,82.2414369 687.850446,83.5546875 C688.616819,84.8679381 689,86.3020756 689,87.8571429 Z" id="question-circle"></path>
            </g>
        </g>
    </g>
</svg>