<?xml version="1.0" encoding="UTF-8"?>
<svg width="7px" height="12px" viewBox="0 0 7 12" version="1.1" xmlns="http://www.w3.org/2000/svg" xmlns:xlink="http://www.w3.org/1999/xlink">
    <!-- Generator: Sketch 49.2 (51160) - http://www.bohemiancoding.com/sketch -->
    <title>right-arrow</title>
    <desc>Created with Sketch.</desc>
    <defs></defs>
    <g id="Desktop" stroke="none" stroke-width="1" fill="none" fill-rule="evenodd">
        <g id="Pricing-Overview---Core" transform="translate(-1250.000000, -2653.000000)" fill="#2F417C">
            <g id="Group-2-Copy-8" transform="translate(1154.000000, 2654.000000)">
                <path d="M102.841518,1.72991071 L99.2857143,5.28571429 L102.841518,8.84151786 C102.92634,8.92633971 102.96875,9.02678513 102.96875,9.14285714 C102.96875,9.25892915 102.92634,9.35937458 102.841518,9.44419643 L101.729911,10.5558036 C101.645089,10.6406254 101.544643,10.6830357 101.428571,10.6830357 C101.312499,10.6830357 101.212054,10.6406254 101.127232,10.5558036 L96.1584821,5.58705357 C96.0736603,5.50223172 96.03125,5.40178629 96.03125,5.28571429 C96.03125,5.16964228 96.0736603,5.06919685 96.1584821,4.984375 L101.127232,0.015625 C101.212054,-0.0691968527 101.312499,-0.111607143 101.428571,-0.111607143 C101.544643,-0.111607143 101.645089,-0.0691968527 101.729911,0.015625 L102.841518,1.12723214 C102.92634,1.212054 102.96875,1.31249942 102.96875,1.42857143 C102.96875,1.54464344 102.92634,1.64508886 102.841518,1.72991071 Z" id="right-arrow" transform="translate(99.500000, 5.285714) rotate(-180.000000) translate(-99.500000, -5.285714) "></path>
            </g>
        </g>
    </g>
</svg>